Coordinates
version=1
nRows=27
nColumns=12
inDegrees=yes

Units are S.I. units (second, meters, Newtons, ...)
Angles are in degrees

endheader
time	SC_y	SC_z	SC_x	AC_y	AC_z	AC_x	GH_y	GH_z	GH_yy	EL_x	PS_y
       0.0              -35.32        -0.4441          59.87          60.27          -9.91         -9.285         -69.35          28.96          105.6          36.42          147.5
   0.03061              -35.32        -0.4395          59.86          60.27         -9.911         -9.284         -69.34          28.96          105.5          36.43          147.5
   0.06122              -35.32        -0.4345          59.85          60.26         -9.911         -9.282         -69.33          28.97          105.5          36.44          147.5
   0.09183              -35.32        -0.4293          59.85          60.26         -9.912         -9.281         -69.31          28.97          105.4          36.45          147.4
    0.1224              -35.32        -0.4237          59.84          60.25         -9.913         -9.279         -69.29          28.98          105.4          36.45          147.4
     0.153              -35.31        -0.4177          59.83          60.25         -9.914         -9.278         -69.28          28.98          105.3          36.46          147.4
    0.1837              -35.31        -0.4114          59.83          60.24         -9.915         -9.276         -69.26          28.98          105.3          36.47          147.4
    0.2143              -35.31        -0.4046          59.82          60.24         -9.916         -9.274         -69.24          28.99          105.2          36.48          147.4
    0.2449              -35.31        -0.3973          59.81          60.23         -9.917         -9.272         -69.21          28.99          105.2          36.49          147.4
    0.2755               -35.3        -0.3895           59.8          60.22         -9.919          -9.27         -69.19           29.0          105.1           36.5          147.4
    0.3061               -35.3        -0.3811          59.79          60.22          -9.92         -9.268         -69.17          29.01          105.0          36.52          147.4
    0.3367               -35.3         -0.372          59.78          60.21         -9.921         -9.265         -69.14          29.01          104.9          36.53          147.4
    0.3673              -35.29        -0.3623          59.77           60.2         -9.923         -9.263         -69.11          29.02          104.9          36.54          147.4
    0.3979              -35.29        -0.3518          59.76          60.19         -9.925          -9.26         -69.08          29.03          104.8          36.56          147.4
    0.4285              -35.29        -0.3404          59.74          60.18         -9.926         -9.257         -69.05          29.04          104.7          36.58          147.3
    0.4591              -35.28         -0.328          59.73          60.17         -9.928         -9.253         -69.01          29.04          104.6          36.59          147.3
    0.4898              -35.28        -0.3146          59.71          60.16          -9.93          -9.25         -68.97          29.05          104.5          36.61          147.3
    0.5204              -35.27           -0.3          59.69          60.15         -9.933         -9.246         -68.93          29.06          104.3          36.63          147.3
     0.551              -35.26         -0.284          59.68          60.14         -9.935         -9.241         -68.88          29.08          104.2          36.66          147.3
    0.5816              -35.26        -0.2666          59.66          60.12         -9.938         -9.236         -68.83          29.09          104.1          36.68          147.2
    0.6122              -35.25        -0.2474          59.63          60.11         -9.941         -9.231         -68.77           29.1          103.9          36.71          147.2
    0.6428              -35.24        -0.2263          59.61          60.09         -9.944         -9.225         -68.71          29.12          103.7          36.74          147.2
    0.6734              -35.24        -0.2029          59.58          60.07         -9.948         -9.219         -68.64          29.13          103.5          36.78          147.2
     0.704              -35.23        -0.1771          59.55          60.05         -9.952         -9.212         -68.56          29.15          103.3          36.81          147.1
    0.7346              -35.22        -0.1484          59.52          60.02         -9.957         -9.204         -68.48          29.17          103.0          36.86          147.1
    0.7652               -35.2        -0.1163          59.48           60.0         -9.962         -9.195         -68.38           29.2          102.8           36.9          147.1
    0.7959              -35.19       -0.08039          59.44          59.97         -9.968         -9.185         -68.28          29.22          102.5          36.96          147.0
